<svg width="70" height="24" viewBox="0 0 70 24" fill="none" xmlns="http://www.w3.org/2000/svg">
<rect x="0.5" y="0.500092" width="69" height="23" rx="3.5" stroke="white"/>
<path d="M6.756 11.5961C6.756 11.1241 6.832 10.7201 6.984 10.3841C7.136 10.0481 7.348 9.77609 7.62 9.56809C7.9 9.35209 8.228 9.19609 8.604 9.10009C8.988 8.99609 9.408 8.94409 9.864 8.94409C9.968 8.94409 10.088 8.94809 10.224 8.95609C10.36 8.96409 10.492 8.97609 10.62 8.99209C10.756 9.00809 10.884 9.02809 11.004 9.05209C11.124 9.06809 11.228 9.08809 11.316 9.11209C11.396 9.12809 11.444 9.15609 11.46 9.19609C11.484 9.22809 11.496 9.27609 11.496 9.34009V12.7121C11.496 13.0321 11.572 13.2401 11.724 13.3361C11.876 13.4241 12.08 13.4681 12.336 13.4681H12.612V14.5001H12.204C11.844 14.5001 11.54 14.4481 11.292 14.3441C11.052 14.2401 10.868 14.0601 10.74 13.8041C10.604 13.9801 10.392 14.1081 10.104 14.1881C9.824 14.2601 9.516 14.2961 9.18 14.2961H9.072C8.328 14.2961 7.756 14.0921 7.356 13.6841C6.956 13.2761 6.756 12.6841 6.756 11.9081V11.5961ZM7.764 11.7761C7.764 12.2561 7.872 12.6321 8.088 12.9041C8.304 13.1681 8.672 13.3001 9.192 13.3001H9.42C9.54 13.3001 9.664 13.2921 9.792 13.2761C9.92 13.2601 10.036 13.2281 10.14 13.1801C10.244 13.1321 10.328 13.0681 10.392 12.9881C10.456 12.9001 10.488 12.7921 10.488 12.6641V9.94009C10.328 9.92409 10.188 9.91209 10.068 9.90409C9.948 9.89609 9.836 9.89209 9.732 9.89209C9.444 9.89209 9.18 9.91609 8.94 9.96409C8.7 10.0121 8.492 10.1001 8.316 10.2281C8.148 10.3481 8.012 10.5161 7.908 10.7321C7.812 10.9401 7.764 11.2041 7.764 11.5241V11.7761ZM7.788 6.72409C7.788 6.64409 7.812 6.58009 7.86 6.53209C7.916 6.48409 7.984 6.46009 8.064 6.46009H8.532C8.612 6.46009 8.676 6.48409 8.724 6.53209C8.78 6.58009 8.808 6.64409 8.808 6.72409V7.37209C8.808 7.44409 8.78 7.50409 8.724 7.55209C8.668 7.60009 8.604 7.62409 8.532 7.62409H8.064C7.984 7.62409 7.916 7.60009 7.86 7.55209C7.812 7.50409 7.788 7.44409 7.788 7.37209V6.72409ZM9.744 6.72409C9.744 6.64409 9.772 6.58009 9.828 6.53209C9.892 6.48409 9.96 6.46009 10.032 6.46009H10.5C10.572 6.46009 10.636 6.48409 10.692 6.53209C10.748 6.58009 10.776 6.64409 10.776 6.72409V7.37209C10.776 7.44409 10.748 7.50409 10.692 7.55209C10.636 7.60009 10.572 7.62409 10.5 7.62409H10.032C9.96 7.62409 9.892 7.60009 9.828 7.55209C9.772 7.50409 9.744 7.44409 9.744 7.37209V6.72409ZM12.1294 13.6601C12.1294 13.5961 12.1694 13.5481 12.2494 13.5161C12.3294 13.4841 12.4254 13.4681 12.5374 13.4681H17.1574C17.2374 13.4681 17.3534 13.4681 17.5054 13.4681C17.6574 13.4681 17.8134 13.4681 17.9734 13.4681C18.1414 13.4681 18.3014 13.4681 18.4534 13.4681C18.6054 13.4601 18.7254 13.4521 18.8134 13.4441C18.8374 13.0601 18.8494 12.6721 18.8494 12.2801C18.8494 11.8481 18.7854 11.4921 18.6574 11.2121C18.5294 10.9241 18.3494 10.7001 18.1174 10.5401C17.8854 10.3721 17.6054 10.2561 17.2774 10.1921C16.9494 10.1281 16.5854 10.0961 16.1854 10.0961C15.9454 10.0961 15.6934 10.1001 15.4294 10.1081C15.1734 10.1081 14.9334 10.1081 14.7094 10.1081C14.4854 10.1081 14.2934 10.1121 14.1334 10.1201C13.9734 10.1201 13.8694 10.1201 13.8214 10.1201C13.6854 10.1201 13.6054 10.0601 13.5814 9.94009C13.5734 9.92409 13.5694 9.88409 13.5694 9.82009C13.5694 9.74809 13.5694 9.70409 13.5694 9.68809C13.5694 9.49609 13.5854 9.31209 13.6174 9.13609C13.6494 8.96009 13.6934 8.78009 13.7494 8.59609C13.8134 8.41209 13.8894 8.22009 13.9774 8.02009C14.0734 7.82009 14.1854 7.60409 14.3134 7.37209L15.2134 5.72809C15.2534 5.66409 15.2934 5.60809 15.3334 5.56009C15.3814 5.51209 15.4494 5.48809 15.5374 5.48809H16.1014C16.1654 5.48809 16.2094 5.50409 16.2334 5.53609C16.2654 5.56009 16.2814 5.59209 16.2814 5.63209C16.2814 5.67209 16.2694 5.71609 16.2454 5.76409L15.1174 7.90009C14.9814 8.14809 14.8654 8.39209 14.7694 8.63209C14.6814 8.87209 14.6334 9.04409 14.6254 9.14809C15.0174 9.13209 15.3414 9.12009 15.5974 9.11209C15.8534 9.10409 16.0854 9.10009 16.2934 9.10009C17.4774 9.10009 18.3654 9.35209 18.9574 9.85609C19.5574 10.3521 19.8574 11.1681 19.8574 12.3041V12.5081C19.8574 12.6201 19.8534 12.7561 19.8454 12.9161C19.8454 13.0681 19.8414 13.2241 19.8334 13.3841C19.8334 13.5441 19.8254 13.7001 19.8094 13.8521C19.8014 13.9961 19.7934 14.1121 19.7854 14.2001C19.7614 14.3521 19.6734 14.4321 19.5214 14.4401C19.3934 14.4561 19.2334 14.4681 19.0414 14.4761C18.8494 14.4761 18.6414 14.4801 18.4174 14.4881C18.2014 14.4961 17.9814 14.5001 17.7574 14.5001C17.5334 14.5001 17.3254 14.5001 17.1334 14.5001H12.5374C12.4254 14.5001 12.3294 14.4841 12.2494 14.4521C12.1694 14.4121 12.1294 14.3601 12.1294 14.2961V13.6601ZM20.2633 16.5401C20.2633 16.4281 20.3313 16.3721 20.4673 16.3721H20.7193C20.9833 16.3721 21.1993 16.3601 21.3673 16.3361C21.5353 16.3121 21.6713 16.2601 21.7753 16.1801C21.8793 16.1001 21.9513 15.9801 21.9913 15.8201C22.0313 15.6681 22.0513 15.4601 22.0513 15.1961V9.88009C22.0513 9.81609 22.0713 9.76409 22.1113 9.72409C22.1513 9.67609 22.2033 9.65209 22.2673 9.65209H22.8553C22.9113 9.65209 22.9593 9.67609 22.9993 9.72409C23.0393 9.76409 23.0593 9.81609 23.0593 9.88009V15.1241C23.0593 15.3961 23.0433 15.6521 23.0113 15.8921C22.9873 16.1321 22.9233 16.3481 22.8193 16.5401C22.6593 16.8201 22.4353 17.0161 22.1473 17.1281C21.8673 17.2401 21.4953 17.2961 21.0313 17.2961C20.9913 17.2961 20.9033 17.2921 20.7673 17.2841C20.6393 17.2761 20.5353 17.2641 20.4553 17.2481C20.3753 17.2321 20.3233 17.2081 20.2993 17.1761C20.2753 17.1521 20.2633 17.1121 20.2633 17.0561V16.5401ZM25.1034 5.71609C25.1034 5.65209 25.1234 5.59609 25.1634 5.54809C25.2114 5.50009 25.2674 5.47609 25.3314 5.47609H25.9194C25.9834 5.47609 26.0354 5.50009 26.0754 5.54809C26.1154 5.59609 26.1354 5.65209 26.1354 5.71609V12.7601C26.1354 12.9201 26.1514 13.0481 26.1834 13.1441C26.2234 13.2321 26.2754 13.3001 26.3394 13.3481C26.4114 13.3961 26.4954 13.4281 26.5914 13.4441C26.6954 13.4601 26.8114 13.4681 26.9394 13.4681H27.2394V14.5001H26.6754C26.4194 14.5001 26.1954 14.4801 26.0034 14.4401C25.8114 14.3921 25.6474 14.3121 25.5114 14.2001C25.3754 14.0801 25.2714 13.9241 25.1994 13.7321C25.1354 13.5401 25.1034 13.2921 25.1034 12.9881V5.71609ZM30.3424 7.54009C30.3424 7.46009 30.3664 7.39609 30.4144 7.34809C30.4704 7.29209 30.5384 7.26409 30.6184 7.26409H31.0864C31.1664 7.26409 31.2304 7.29209 31.2784 7.34809C31.3344 7.39609 31.3624 7.46009 31.3624 7.54009V8.14009C31.3624 8.21209 31.3344 8.27209 31.2784 8.32009C31.2224 8.36809 31.1584 8.39209 31.0864 8.39209H30.6184C30.5384 8.39209 30.4704 8.36809 30.4144 8.32009C30.3664 8.27209 30.3424 8.21209 30.3424 8.14009V7.54009ZM32.2984 7.54009C32.2984 7.46009 32.3264 7.39609 32.3824 7.34809C32.4464 7.29209 32.5144 7.26409 32.5864 7.26409H33.0544C33.1264 7.26409 33.1904 7.29209 33.2464 7.34809C33.3024 7.39609 33.3304 7.46009 33.3304 7.54009V8.14009C33.3304 8.21209 33.3024 8.27209 33.2464 8.32009C33.1904 8.36809 33.1264 8.39209 33.0544 8.39209H32.5864C32.5144 8.39209 32.4464 8.36809 32.3824 8.32009C32.3264 8.27209 32.2984 8.21209 32.2984 8.14009V7.54009ZM31.3504 6.05209C31.3504 5.98009 31.3784 5.92009 31.4344 5.87209C31.4904 5.82409 31.5544 5.80009 31.6264 5.80009H32.0704C32.1424 5.80009 32.2064 5.82409 32.2624 5.87209C32.3184 5.92009 32.3464 5.98009 32.3464 6.05209V6.59209C32.3464 6.67209 32.3144 6.73609 32.2504 6.78409C32.1944 6.82409 32.1304 6.84409 32.0584 6.84409H31.6144C31.5424 6.84409 31.4784 6.82409 31.4224 6.78409C31.3744 6.73609 31.3504 6.67209 31.3504 6.59209V6.05209ZM26.7544 13.6241C26.7544 13.5761 26.7944 13.5401 26.8744 13.5161C26.9544 13.4841 27.0504 13.4681 27.1624 13.4681H27.6184C27.6984 13.4681 27.7864 13.4641 27.8824 13.4561C27.9784 13.4481 28.0664 13.4321 28.1464 13.4081C28.2344 13.3761 28.3064 13.3321 28.3624 13.2761C28.4264 13.2121 28.4584 13.1281 28.4584 13.0241V10.4321C28.4584 10.3681 28.4784 10.3121 28.5184 10.2641C28.5584 10.2161 28.6104 10.1921 28.6744 10.1921H29.2264C29.2904 10.1921 29.3424 10.2161 29.3824 10.2641C29.4224 10.3121 29.4424 10.3681 29.4424 10.4321V13.2041C29.4664 13.2681 29.5144 13.3201 29.5864 13.3601C29.6664 13.3921 29.7504 13.4201 29.8384 13.4441C29.9344 13.4601 30.0304 13.4721 30.1264 13.4801C30.2224 13.4881 30.3064 13.4921 30.3784 13.4921H30.6304C30.7024 13.4921 30.7824 13.4881 30.8704 13.4801C30.9664 13.4641 31.0544 13.4441 31.1344 13.4201C31.2144 13.3881 31.2824 13.3441 31.3384 13.2881C31.3944 13.2321 31.4224 13.1561 31.4224 13.0601V10.0241C31.4224 9.96009 31.4424 9.90809 31.4824 9.86809C31.5304 9.82009 31.5864 9.79609 31.6504 9.79609H32.2024C32.2664 9.79609 32.3184 9.82009 32.3584 9.86809C32.3984 9.90809 32.4184 9.96009 32.4184 10.0241V13.2041C32.4664 13.3321 32.5864 13.4121 32.7784 13.4441C32.9704 13.4761 33.1704 13.4921 33.3784 13.4921H33.5344C33.6064 13.4921 33.6904 13.4881 33.7864 13.4801C33.8904 13.4721 33.9864 13.4561 34.0744 13.4321C34.1624 13.4001 34.2344 13.3561 34.2904 13.3001C34.3544 13.2361 34.3864 13.1561 34.3864 13.0601V9.56809C34.3864 9.50409 34.4064 9.45209 34.4464 9.41209C34.4944 9.36409 34.5504 9.34009 34.6144 9.34009H35.1784C35.2424 9.34009 35.2944 9.36409 35.3344 9.41209C35.3744 9.45209 35.3944 9.50409 35.3944 9.56809V13.1801C35.4184 13.2441 35.4704 13.2961 35.5504 13.3361C35.6304 13.3681 35.7184 13.3961 35.8144 13.4201C35.9104 13.4361 36.0064 13.4481 36.1024 13.4561C36.1984 13.4641 36.2824 13.4681 36.3544 13.4681H36.5824V14.5001H36.3784C36.1624 14.5001 35.9144 14.4761 35.6344 14.4281C35.3544 14.3721 35.1104 14.2641 34.9024 14.1041C34.7184 14.2641 34.4984 14.3721 34.2424 14.4281C33.9864 14.4761 33.7424 14.5001 33.5104 14.5001H33.3184C33.0384 14.5001 32.7864 14.4761 32.5624 14.4281C32.3464 14.3721 32.1304 14.2641 31.9144 14.1041C31.5944 14.3681 31.1304 14.5001 30.5224 14.5001H30.3184C30.1104 14.5001 29.8784 14.4761 29.6224 14.4281C29.3744 14.3721 29.1584 14.2641 28.9744 14.1041C28.8784 14.1921 28.7664 14.2601 28.6384 14.3081C28.5184 14.3561 28.3944 14.3961 28.2664 14.4281C28.1384 14.4601 28.0104 14.4801 27.8824 14.4881C27.7624 14.4961 27.6504 14.5001 27.5464 14.5001H27.1624C27.0504 14.5001 26.9544 14.4881 26.8744 14.4641C26.7944 14.4321 26.7544 14.3881 26.7544 14.3321V13.6241ZM36.1059 13.6241C36.1059 13.5761 36.1459 13.5401 36.2259 13.5161C36.3059 13.4841 36.4019 13.4681 36.5139 13.4681H36.8979C36.9539 13.4681 37.0259 13.4641 37.1139 13.4561C37.2019 13.4481 37.2899 13.4281 37.3779 13.3961C37.4659 13.3641 37.5419 13.3241 37.6059 13.2761C37.6779 13.2201 37.7259 13.1441 37.7499 13.0481C37.7739 12.9521 37.7859 12.8361 37.7859 12.7001V11.5481C37.7859 10.7241 37.9979 10.0921 38.4219 9.65209C38.8539 9.21209 39.4699 8.99209 40.2699 8.99209C41.0699 8.99209 41.6739 9.20809 42.0819 9.64009C42.4899 10.0721 42.6939 10.7041 42.6939 11.5361V12.1481C42.6939 12.9801 42.5019 13.6121 42.1179 14.0441C41.7339 14.4681 41.1099 14.6801 40.2459 14.6801C39.7979 14.6801 39.4019 14.6201 39.0579 14.5001C38.7219 14.3721 38.4539 14.1801 38.2539 13.9241C38.1179 14.1401 37.9099 14.2921 37.6299 14.3801C37.3499 14.4601 37.0419 14.5001 36.7059 14.5001H36.5139C36.4019 14.5001 36.3059 14.4881 36.2259 14.4641C36.1459 14.4321 36.1059 14.3881 36.1059 14.3321V13.6241ZM38.7939 12.1721C38.7939 12.4281 38.8099 12.6481 38.8419 12.8321C38.9219 13.1841 39.0819 13.4241 39.3219 13.5521C39.5619 13.6721 39.8699 13.7321 40.2459 13.7321C40.7739 13.7321 41.1459 13.6081 41.3619 13.3601C41.5779 13.1041 41.6859 12.6801 41.6859 12.0881V11.6441C41.6859 11.1001 41.5779 10.6801 41.3619 10.3841C41.1539 10.0881 40.7899 9.94009 40.2699 9.94009C39.7419 9.94009 39.3619 10.0881 39.1299 10.3841C38.9059 10.6721 38.7939 11.0921 38.7939 11.6441V12.1721Z" fill="white"/>
<path d="M54.52 18.4201C55.3067 18.4201 56.42 17.8668 57.3 15.2201L57.78 13.7801L59.22 13.3001C61.86 12.4201 62.4133 11.3068 62.4133 10.5201C62.4133 9.74009 61.86 8.62009 59.22 7.73343L53.56 5.84676C52.1467 5.37343 50.9667 5.51343 50.24 6.23343C49.5133 6.95343 49.3733 8.14009 49.8467 9.55343L51.7333 15.2134C52.62 17.8668 53.7333 18.4201 54.52 18.4201ZM58.9067 8.68676C60.76 9.30676 61.42 10.0401 61.42 10.5201C61.42 11.0001 60.76 11.7334 58.9067 12.3468L57.2267 12.9068C57.08 12.9534 56.96 13.0734 56.9133 13.2201L56.3533 14.9001C55.74 16.7534 55 17.4134 54.52 17.4134C54.04 17.4134 53.3067 16.7534 52.6867 14.9001L50.8 9.24009C50.46 8.21343 50.52 7.37343 50.9533 6.94009C51.3867 6.50676 52.2267 6.45343 53.2467 6.79343L58.9067 8.68676Z" fill="white"/>
<path d="M57.26 13.6001C57.3867 13.6001 57.5133 13.5534 57.6133 13.4534C57.8067 13.2601 57.8067 12.9401 57.6133 12.7468L55.2267 10.3534C55.0333 10.1601 54.7133 10.1601 54.52 10.3534C54.3267 10.5468 54.3267 10.8668 54.52 11.0601L56.9067 13.4534C57 13.5534 57.1333 13.6001 57.26 13.6001Z" fill="white"/>
</svg>
