<svg width="364" height="38" viewBox="0 0 364 38" fill="none" xmlns="http://www.w3.org/2000/svg">
<rect width="36" height="36" rx="6" transform="matrix(-1 0 0 1 36 1)" fill="white"/>
<rect x="-0.375" y="0.375" width="35.25" height="35.25" rx="5.625" transform="matrix(-1 0 0 1 35.25 1)" stroke="#92A1AD" stroke-opacity="0.4" stroke-width="0.75"/>
<path d="M19.0332 15.98C19.1598 15.98 19.2865 15.9333 19.3865 15.8333L21.5132 13.7067L23.6399 15.8333C23.8332 16.0267 24.1532 16.0267 24.3465 15.8333C24.5398 15.64 24.5398 15.32 24.3465 15.1267L21.8665 12.6466C21.7732 12.5533 21.6465 12.5 21.5132 12.5C21.3798 12.5 21.2532 12.5533 21.1598 12.6466L18.6798 15.1267C18.4865 15.32 18.4865 15.64 18.6798 15.8333C18.7798 15.9333 18.9065 15.98 19.0332 15.98Z" fill="#8B8B8B"/>
<path d="M21.5133 25.5C21.7866 25.5 22.0133 25.2733 22.0133 25V13C22.0133 12.7267 21.7866 12.5 21.5133 12.5C21.24 12.5 21.0133 12.7267 21.0133 13V25C21.0133 25.2733 21.24 25.5 21.5133 25.5Z" fill="#8B8B8B"/>
<path d="M14.48 25.5C14.6133 25.5 14.74 25.4467 14.8333 25.3533L17.3133 22.8733C17.5066 22.68 17.5066 22.36 17.3133 22.1666C17.12 21.9733 16.8 21.9733 16.6066 22.1666L14.48 24.2933L12.3534 22.1666C12.16 21.9733 11.84 21.9733 11.6466 22.1666C11.4533 22.36 11.4533 22.68 11.6466 22.8733L14.1267 25.3533C14.22 25.4467 14.3533 25.5 14.48 25.5Z" fill="#8B8B8B"/>
<path d="M14.4867 25.5C14.76 25.5 14.9867 25.2733 14.9867 25V13C14.9867 12.7267 14.76 12.5 14.4867 12.5C14.2134 12.5 13.9867 12.7267 13.9867 13V25C13.9867 25.2733 14.2067 25.5 14.4867 25.5Z" fill="#8B8B8B"/>
<rect x="43" y="1" width="36" height="36" rx="7.5" fill="white"/>
<rect x="43.375" y="1.375" width="35.25" height="35.25" rx="7.125" stroke="#92A1AD" stroke-opacity="0.4" stroke-width="0.75"/>
<path d="M67.6666 15.8333H63.6666C63.3933 15.8333 63.1666 15.6067 63.1666 15.3333C63.1666 15.06 63.3933 14.8333 63.6666 14.8333H67.6666C67.94 14.8333 68.1666 15.06 68.1666 15.3333C68.1666 15.6067 67.94 15.8333 67.6666 15.8333Z" fill="#8B8B8B"/>
<path d="M57 15.8333H54.3333C54.06 15.8333 53.8333 15.6067 53.8333 15.3333C53.8333 15.06 54.06 14.8333 54.3333 14.8333H57C57.2733 14.8333 57.5 15.06 57.5 15.3333C57.5 15.6067 57.2733 15.8333 57 15.8333Z" fill="#8B8B8B"/>
<path d="M59.6666 18.1667C58.1066 18.1667 56.8333 16.8933 56.8333 15.3333C56.8333 13.7733 58.1066 12.5 59.6666 12.5C61.2266 12.5 62.5 13.7733 62.5 15.3333C62.5 16.8933 61.2266 18.1667 59.6666 18.1667ZM59.6666 13.5C58.6533 13.5 57.8333 14.32 57.8333 15.3333C57.8333 16.3467 58.6533 17.1667 59.6666 17.1667C60.68 17.1667 61.5 16.3467 61.5 15.3333C61.5 14.32 60.68 13.5 59.6666 13.5Z" fill="#8B8B8B"/>
<path d="M67.6667 23.1667H65C64.7267 23.1667 64.5 22.94 64.5 22.6667C64.5 22.3933 64.7267 22.1667 65 22.1667H67.6667C67.94 22.1667 68.1667 22.3933 68.1667 22.6667C68.1667 22.94 67.94 23.1667 67.6667 23.1667Z" fill="#8B8B8B"/>
<path d="M58.3333 23.1667H54.3333C54.06 23.1667 53.8333 22.94 53.8333 22.6667C53.8333 22.3933 54.06 22.1667 54.3333 22.1667H58.3333C58.6066 22.1667 58.8333 22.3933 58.8333 22.6667C58.8333 22.94 58.6066 23.1667 58.3333 23.1667Z" fill="#8B8B8B"/>
<path d="M62.3333 25.5C60.7733 25.5 59.5 24.2266 59.5 22.6666C59.5 21.1066 60.7733 19.8333 62.3333 19.8333C63.8933 19.8333 65.1667 21.1066 65.1667 22.6666C65.1667 24.2266 63.8933 25.5 62.3333 25.5ZM62.3333 20.8333C61.32 20.8333 60.5 21.6533 60.5 22.6666C60.5 23.68 61.32 24.5 62.3333 24.5C63.3467 24.5 64.1667 23.68 64.1667 22.6666C64.1667 21.6533 63.3467 20.8333 62.3333 20.8333Z" fill="#8B8B8B"/>
<path d="M363 7C363 3.68629 360.314 1 357 1H92C88.6863 1 86 3.68629 86 7V31C86 34.3137 88.6863 37 92 37H357C360.314 37 363 34.3137 363 31V7Z" fill="white" stroke="#92A1AD" stroke-opacity="0.4"/>
<path d="M343.917 25.5C340.15 25.5 337.083 22.4333 337.083 18.6667C337.083 14.9 340.15 11.8333 343.917 11.8333C347.683 11.8333 350.75 14.9 350.75 18.6667C350.75 22.4333 347.683 25.5 343.917 25.5ZM343.917 12.8333C340.697 12.8333 338.083 15.4533 338.083 18.6667C338.083 21.88 340.697 24.5 343.917 24.5C347.137 24.5 349.75 21.88 349.75 18.6667C349.75 15.4533 347.137 12.8333 343.917 12.8333Z" fill="#292D32"/>
<path d="M350.917 26.1667C350.79 26.1667 350.663 26.12 350.563 26.02L349.23 24.6867C349.037 24.4934 349.037 24.1734 349.23 23.98C349.423 23.7867 349.743 23.7867 349.937 23.98L351.27 25.3134C351.463 25.5067 351.463 25.8267 351.27 26.02C351.17 26.12 351.043 26.1667 350.917 26.1667Z" fill="#292D32"/>
<path d="M292.5 22.79C292.5 22.8433 292.48 22.89 292.44 22.93C292.407 22.97 292.363 22.99 292.31 22.99H291.83C291.777 22.99 291.73 22.97 291.69 22.93C291.657 22.89 291.64 22.8433 291.64 22.79V21.86C291.64 21.8067 291.657 21.7633 291.69 21.73C291.73 21.69 291.777 21.67 291.83 21.67H292.31C292.363 21.67 292.407 21.69 292.44 21.73C292.48 21.7633 292.5 21.8067 292.5 21.86V22.79ZM294.639 22.79C294.639 22.8433 294.619 22.89 294.579 22.93C294.545 22.97 294.502 22.99 294.449 22.99H293.969C293.915 22.99 293.869 22.97 293.829 22.93C293.795 22.89 293.779 22.8433 293.779 22.79V21.86C293.779 21.8067 293.795 21.7633 293.829 21.73C293.869 21.69 293.915 21.67 293.969 21.67H294.449C294.502 21.67 294.545 21.69 294.579 21.73C294.619 21.7633 294.639 21.8067 294.639 21.86V22.79ZM296.777 22.79C296.777 22.8433 296.757 22.89 296.717 22.93C296.684 22.97 296.641 22.99 296.587 22.99H296.107C296.054 22.99 296.007 22.97 295.967 22.93C295.934 22.89 295.917 22.8433 295.917 22.79V21.86C295.917 21.8067 295.934 21.7633 295.967 21.73C296.007 21.69 296.054 21.67 296.107 21.67H296.587C296.641 21.67 296.684 21.69 296.717 21.73C296.757 21.7633 296.777 21.8067 296.777 21.86V22.79ZM302.487 17.56C302.487 17.4933 302.51 17.44 302.557 17.4C302.603 17.36 302.657 17.34 302.717 17.34H303.157C303.217 17.34 303.267 17.36 303.307 17.4C303.353 17.44 303.377 17.4933 303.377 17.56V18.1C303.377 18.16 303.353 18.21 303.307 18.25C303.267 18.29 303.213 18.31 303.147 18.31H302.717C302.65 18.31 302.593 18.29 302.547 18.25C302.507 18.21 302.487 18.16 302.487 18.1V17.56ZM301.157 20.24C301.263 20.24 301.313 20.3067 301.307 20.44C301.3 20.52 301.29 20.6067 301.277 20.7C301.27 20.7867 301.263 20.8767 301.257 20.97C301.25 21.0567 301.243 21.14 301.237 21.22C301.237 21.3 301.237 21.3667 301.237 21.42C301.237 21.7667 301.26 22.09 301.307 22.39C301.36 22.6833 301.467 22.9367 301.627 23.15C301.793 23.37 302.027 23.54 302.327 23.66C302.633 23.7867 303.04 23.85 303.547 23.85C303.72 23.85 303.877 23.8467 304.017 23.84C304.163 23.8333 304.32 23.8133 304.487 23.78C304.487 23.6 304.487 23.4367 304.487 23.29C304.493 23.15 304.497 23.0167 304.497 22.89C304.497 22.7633 304.497 22.64 304.497 22.52C304.497 22.4 304.497 22.27 304.497 22.13V19.15C304.497 19.0967 304.513 19.0533 304.547 19.02C304.587 18.98 304.63 18.96 304.677 18.96H305.167C305.22 18.96 305.26 18.98 305.287 19.02C305.32 19.0533 305.337 19.0967 305.337 19.15V22.14H306.267V23H305.337C305.337 23.1 305.337 23.21 305.337 23.33C305.337 23.4567 305.337 23.58 305.337 23.7C305.337 23.8267 305.333 23.9467 305.327 24.06C305.327 24.1733 305.323 24.27 305.317 24.35C305.317 24.4567 305.247 24.5267 305.107 24.56C304.853 24.6133 304.593 24.65 304.327 24.67C304.06 24.6967 303.793 24.71 303.527 24.71C302.947 24.71 302.457 24.6433 302.057 24.51C301.663 24.3833 301.343 24.1933 301.097 23.94C300.857 23.6867 300.683 23.3733 300.577 23C300.47 22.6333 300.417 22.2133 300.417 21.74C300.417 21.68 300.42 21.5967 300.427 21.49C300.433 21.3767 300.44 21.2567 300.447 21.13C300.46 21.0033 300.473 20.88 300.487 20.76C300.5 20.6333 300.517 20.5233 300.537 20.43C300.55 20.3567 300.57 20.3067 300.597 20.28C300.623 20.2533 300.67 20.24 300.737 20.24H301.157ZM305.864 22.27C305.864 22.23 305.897 22.2 305.964 22.18C306.03 22.1533 306.11 22.14 306.204 22.14H307.464C307.33 21.9933 307.224 21.79 307.144 21.53C307.07 21.27 307.034 20.96 307.034 20.6V20.49C307.034 20.1367 307.09 19.83 307.204 19.57C307.324 19.3033 307.487 19.0833 307.694 18.91C307.907 18.7367 308.154 18.61 308.434 18.53C308.72 18.4433 309.03 18.4 309.364 18.4C309.497 18.4 309.64 18.4033 309.794 18.41C309.954 18.4167 310.144 18.4367 310.364 18.47C310.437 18.4833 310.494 18.5033 310.534 18.53C310.574 18.55 310.594 18.5933 310.594 18.66V19.06C310.594 19.1333 310.57 19.1833 310.524 19.21C310.477 19.23 310.427 19.2367 310.374 19.23C310.207 19.2167 310.057 19.2067 309.924 19.2C309.79 19.1933 309.637 19.19 309.464 19.19C308.97 19.19 308.58 19.3 308.294 19.52C308.014 19.7333 307.874 20.0867 307.874 20.58V20.7C307.874 21.0533 307.94 21.3633 308.074 21.63C308.214 21.8967 308.38 22.0667 308.574 22.14H310.584C310.637 22.14 310.684 22.1567 310.724 22.19C310.764 22.2167 310.784 22.2567 310.784 22.31V22.84C310.784 22.8933 310.764 22.9333 310.724 22.96C310.684 22.9867 310.637 23 310.584 23H306.204C306.11 23 306.03 22.99 305.964 22.97C305.897 22.9433 305.864 22.9067 305.864 22.86V22.27ZM316.884 17.51C316.884 17.4433 316.904 17.39 316.944 17.35C316.991 17.3033 317.047 17.28 317.114 17.28H317.504C317.571 17.28 317.624 17.3033 317.664 17.35C317.711 17.39 317.734 17.4433 317.734 17.51V18.01C317.734 18.07 317.711 18.12 317.664 18.16C317.617 18.2 317.564 18.22 317.504 18.22H317.114C317.047 18.22 316.991 18.2 316.944 18.16C316.904 18.12 316.884 18.07 316.884 18.01V17.51ZM318.514 17.51C318.514 17.4433 318.537 17.39 318.584 17.35C318.637 17.3033 318.694 17.28 318.754 17.28H319.144C319.204 17.28 319.257 17.3033 319.304 17.35C319.351 17.39 319.374 17.4433 319.374 17.51V18.01C319.374 18.07 319.351 18.12 319.304 18.16C319.257 18.2 319.204 18.22 319.144 18.22H318.754C318.694 18.22 318.637 18.2 318.584 18.16C318.537 18.12 318.514 18.07 318.514 18.01V17.51ZM317.724 16.27C317.724 16.21 317.747 16.16 317.794 16.12C317.841 16.08 317.894 16.06 317.954 16.06H318.324C318.384 16.06 318.437 16.08 318.484 16.12C318.531 16.16 318.554 16.21 318.554 16.27V16.72C318.554 16.7867 318.527 16.84 318.474 16.88C318.427 16.9133 318.374 16.93 318.314 16.93H317.944C317.884 16.93 317.831 16.9133 317.784 16.88C317.744 16.84 317.724 16.7867 317.724 16.72V16.27ZM320.334 22.14C320.394 22.14 320.464 22.1367 320.544 22.13C320.631 22.1233 320.707 22.11 320.774 22.09C320.847 22.0633 320.907 22.0267 320.954 21.98C321.007 21.9267 321.034 21.8567 321.034 21.77V19.15C321.034 19.0967 321.051 19.0533 321.084 19.02C321.124 18.98 321.171 18.96 321.224 18.96H321.694C321.747 18.96 321.791 18.98 321.824 19.02C321.857 19.0533 321.874 19.0967 321.874 19.15V21.9C321.894 21.9533 321.934 21.9967 321.994 22.03C322.061 22.0567 322.131 22.08 322.204 22.1C322.284 22.1133 322.364 22.1233 322.444 22.13C322.524 22.1367 322.591 22.14 322.644 22.14H322.804V23H322.694C322.601 23 322.497 22.9967 322.384 22.99C322.277 22.9833 322.167 22.9667 322.054 22.94C321.941 22.9133 321.831 22.88 321.724 22.84C321.617 22.8 321.527 22.7433 321.454 22.67C321.281 22.8167 321.061 22.91 320.794 22.95C320.534 22.9833 320.264 23 319.984 23H317.464C316.824 23 316.297 22.94 315.884 22.82C315.477 22.6933 315.154 22.5167 314.914 22.29C314.681 22.0567 314.517 21.7767 314.424 21.45C314.337 21.1167 314.294 20.7467 314.294 20.34C314.294 20.2 314.297 20.0567 314.304 19.91C314.317 19.7567 314.341 19.5833 314.374 19.39C314.394 19.2633 314.461 19.2 314.574 19.2H314.994C315.107 19.2 315.157 19.2667 315.144 19.4C315.131 19.5533 315.121 19.6833 315.114 19.79C315.107 19.8967 315.104 20.0067 315.104 20.12C315.104 20.42 315.131 20.6933 315.184 20.94C315.237 21.1867 315.347 21.4 315.514 21.58C315.687 21.76 315.931 21.9 316.244 22C316.564 22.0933 316.987 22.14 317.514 22.14H320.334ZM322.747 23C322.64 23 322.557 22.9867 322.497 22.96C322.437 22.9267 322.407 22.8933 322.407 22.86V22.27C322.407 22.23 322.44 22.2 322.507 22.18C322.573 22.1533 322.653 22.14 322.747 22.14H327.387L327.027 21.28L326.797 20.75C326.577 20.2367 326.283 19.8567 325.917 19.61C325.557 19.3633 325.063 19.24 324.437 19.24C324.383 19.24 324.28 19.2467 324.127 19.26C323.973 19.2667 323.84 19.2767 323.727 19.29C323.58 19.3033 323.507 19.2567 323.507 19.15V18.74C323.507 18.6867 323.52 18.6467 323.547 18.62C323.573 18.5867 323.623 18.5633 323.697 18.55C323.837 18.5167 323.99 18.4933 324.157 18.48C324.33 18.4667 324.493 18.46 324.647 18.46C324.98 18.46 325.293 18.4933 325.587 18.56C325.88 18.62 326.157 18.7367 326.417 18.91C326.677 19.0767 326.917 19.31 327.137 19.61C327.357 19.9033 327.563 20.2833 327.757 20.75L327.867 21.01L328.267 22.02C328.3 22.0733 328.327 22.1067 328.347 22.12C328.367 22.1333 328.403 22.14 328.457 22.14H328.527V23H322.747ZM328.819 24.15C328.819 24.0833 328.843 24.03 328.889 23.99C328.936 23.95 328.989 23.93 329.049 23.93H329.479C329.539 23.93 329.593 23.95 329.639 23.99C329.686 24.03 329.709 24.0833 329.709 24.15V24.69C329.709 24.7433 329.686 24.79 329.639 24.83C329.593 24.8767 329.539 24.9 329.479 24.9H329.049C328.989 24.9 328.936 24.8767 328.889 24.83C328.843 24.79 328.819 24.7433 328.819 24.69V24.15ZM328.129 22.27C328.129 22.23 328.163 22.2 328.229 22.18C328.296 22.1533 328.376 22.14 328.469 22.14H329.169C329.363 22.14 329.486 22.1233 329.539 22.09C329.593 22.0567 329.619 21.9533 329.619 21.78C329.619 21.5467 329.619 21.3267 329.619 21.12C329.619 20.9133 329.619 20.7067 329.619 20.5C329.619 20.2933 329.616 20.08 329.609 19.86C329.609 19.64 329.606 19.4 329.599 19.14C329.599 19.0867 329.613 19.0433 329.639 19.01C329.673 18.97 329.716 18.95 329.769 18.95H330.249C330.309 18.95 330.356 18.97 330.389 19.01C330.423 19.0433 330.439 19.0867 330.439 19.14C330.446 19.3667 330.449 19.5567 330.449 19.71C330.456 19.8633 330.459 20.01 330.459 20.15C330.459 20.2833 330.459 20.4233 330.459 20.57C330.459 20.71 330.459 20.88 330.459 21.08C330.459 21.4 330.456 21.6967 330.449 21.97C330.449 22.2433 330.439 22.4567 330.419 22.61C330.406 22.6767 330.383 22.7333 330.349 22.78C330.323 22.8267 330.269 22.8667 330.189 22.9C330.136 22.92 330.063 22.9367 329.969 22.95C329.876 22.9567 329.769 22.9667 329.649 22.98C329.529 22.9867 329.406 22.9933 329.279 23C329.153 23 329.033 23 328.919 23H328.469C328.376 23 328.296 22.99 328.229 22.97C328.163 22.9433 328.129 22.9067 328.129 22.86V22.27Z" fill="#92A1AD" fill-opacity="0.4"/>
</svg>
