<svg width="36" height="44" viewBox="0 0 36 44" fill="none" xmlns="http://www.w3.org/2000/svg">
<path d="M0.666 43V41.776L5.796 36.826C6.252 36.394 6.588 36.016 6.804 35.692C7.032 35.356 7.182 35.05 7.254 34.774C7.338 34.486 7.38 34.21 7.38 33.946C7.38 33.298 7.152 32.788 6.696 32.416C6.24 32.044 5.574 31.858 4.698 31.858C4.026 31.858 3.42 31.972 2.88 32.2C2.34 32.416 1.872 32.758 1.476 33.226L0.252 32.164C0.732 31.552 1.374 31.084 2.178 30.76C2.994 30.424 3.888 30.256 4.86 30.256C5.736 30.256 6.498 30.4 7.146 30.688C7.794 30.964 8.292 31.366 8.64 31.894C9 32.422 9.18 33.046 9.18 33.766C9.18 34.174 9.126 34.576 9.018 34.972C8.91 35.368 8.706 35.788 8.406 36.232C8.106 36.676 7.674 37.174 7.11 37.726L2.538 42.136L2.106 41.434H9.72V43H0.666ZM15.2679 43.144C14.3799 43.144 13.5159 43.006 12.6759 42.73C11.8479 42.454 11.1699 42.082 10.6419 41.614L11.4699 40.192C11.8899 40.588 12.4359 40.912 13.1079 41.164C13.7799 41.416 14.4939 41.542 15.2499 41.542C16.2099 41.542 16.9479 41.338 17.4639 40.93C17.9799 40.522 18.2379 39.976 18.2379 39.292C18.2379 38.824 18.1239 38.416 17.8959 38.068C17.6679 37.72 17.2719 37.456 16.7079 37.276C16.1559 37.084 15.3939 36.988 14.4219 36.988H11.5599L12.2259 30.4H19.3359V31.966H12.8919L13.8279 31.084L13.3059 36.286L12.3699 35.422H14.7999C16.0599 35.422 17.0739 35.584 17.8419 35.908C18.6099 36.232 19.1679 36.682 19.5159 37.258C19.8639 37.822 20.0379 38.476 20.0379 39.22C20.0379 39.94 19.8639 40.6 19.5159 41.2C19.1679 41.788 18.6399 42.262 17.9319 42.622C17.2359 42.97 16.3479 43.144 15.2679 43.144ZM23.0881 43L31.6921 30.4H33.0781L24.4741 43H23.0881ZM24.0961 37.168C23.5201 37.168 23.0101 37.024 22.5661 36.736C22.1221 36.448 21.7741 36.046 21.5221 35.53C21.2821 35.014 21.1621 34.414 21.1621 33.73C21.1621 33.046 21.2821 32.446 21.5221 31.93C21.7741 31.414 22.1221 31.012 22.5661 30.724C23.0101 30.436 23.5201 30.292 24.0961 30.292C24.6841 30.292 25.1941 30.436 25.6261 30.724C26.0701 31.012 26.4121 31.414 26.6521 31.93C26.8921 32.446 27.0121 33.046 27.0121 33.73C27.0121 34.414 26.8921 35.014 26.6521 35.53C26.4121 36.046 26.0701 36.448 25.6261 36.736C25.1941 37.024 24.6841 37.168 24.0961 37.168ZM24.0961 36.142C24.6481 36.142 25.0801 35.932 25.3921 35.512C25.7041 35.08 25.8601 34.486 25.8601 33.73C25.8601 32.974 25.7041 32.386 25.3921 31.966C25.0801 31.534 24.6481 31.318 24.0961 31.318C23.5561 31.318 23.1241 31.534 22.8001 31.966C22.4881 32.386 22.3321 32.974 22.3321 33.73C22.3321 34.474 22.4881 35.062 22.8001 35.494C23.1241 35.926 23.5561 36.142 24.0961 36.142ZM32.0701 43.108C31.4941 43.108 30.9841 42.964 30.5401 42.676C30.0961 42.388 29.7541 41.986 29.5141 41.47C29.2741 40.954 29.1541 40.354 29.1541 39.67C29.1541 38.986 29.2741 38.386 29.5141 37.87C29.7541 37.354 30.0961 36.952 30.5401 36.664C30.9841 36.376 31.4941 36.232 32.0701 36.232C32.6581 36.232 33.1681 36.376 33.6001 36.664C34.0441 36.952 34.3861 37.354 34.6261 37.87C34.8781 38.386 35.0041 38.986 35.0041 39.67C35.0041 40.354 34.8781 40.954 34.6261 41.47C34.3861 41.986 34.0441 42.388 33.6001 42.676C33.1681 42.964 32.6581 43.108 32.0701 43.108ZM32.0701 42.082C32.6101 42.082 33.0361 41.872 33.3481 41.452C33.6721 41.02 33.8341 40.426 33.8341 39.67C33.8341 38.926 33.6721 38.338 33.3481 37.906C33.0361 37.474 32.6101 37.258 32.0701 37.258C31.5301 37.258 31.0981 37.474 30.7741 37.906C30.4621 38.326 30.3061 38.914 30.3061 39.67C30.3061 40.426 30.4621 41.02 30.7741 41.452C31.0981 41.872 31.5301 42.082 32.0701 42.082Z" fill="white"/>
<path d="M8.7 14.2521C8.7 13.6641 8.826 13.2348 9.078 12.9641C9.33 12.6841 9.68933 12.5301 10.156 12.5021C10.0907 12.3434 10.044 12.1568 10.016 11.9421C9.99733 11.7181 9.988 11.4988 9.988 11.2841V10.5561C9.988 9.59476 10.2353 8.85742 10.73 8.34409C11.234 7.83076 11.9527 7.57409 12.886 7.57409C13.81 7.57409 14.51 7.82609 14.986 8.33009C15.4713 8.83409 15.714 9.57142 15.714 10.5421V11.4241C15.714 11.7228 15.6907 12.0028 15.644 12.2641C15.672 12.3668 15.7233 12.4508 15.798 12.5161C15.882 12.5814 15.9753 12.6374 16.078 12.6841C16.19 12.7214 16.2973 12.7494 16.4 12.7681C16.512 12.7868 16.61 12.7961 16.694 12.7961H16.89V14.0001H16.736C16.4653 14.0001 16.1713 13.9628 15.854 13.8881C15.5367 13.8134 15.2753 13.6688 15.07 13.4541C14.8647 13.7154 14.58 13.9114 14.216 14.0421C13.8613 14.1821 13.404 14.2521 12.844 14.2521C12.3587 14.2521 11.934 14.1961 11.57 14.0841C11.2153 13.9721 10.9213 13.7948 10.688 13.5521C10.408 13.5521 10.198 13.5988 10.058 13.6921C9.92733 13.7854 9.862 13.9954 9.862 14.3221V17.4301C9.862 17.5048 9.83867 17.5701 9.792 17.6261C9.74533 17.6821 9.68467 17.7101 9.61 17.7101H8.952C8.87733 17.7101 8.81667 17.6821 8.77 17.6261C8.72333 17.5701 8.7 17.5048 8.7 17.4301V14.2521ZM11.164 11.2421C11.164 11.9141 11.2853 12.3994 11.528 12.6981C11.78 12.9968 12.2187 13.1461 12.844 13.1461C13.152 13.1461 13.4133 13.1228 13.628 13.0761C13.8427 13.0201 14.0153 12.9268 14.146 12.7961C14.286 12.6561 14.384 12.4741 14.44 12.2501C14.5053 12.0261 14.538 11.7414 14.538 11.3961V10.6541C14.538 10.0101 14.412 9.52009 14.16 9.18409C13.9173 8.84809 13.488 8.68009 12.872 8.68009C12.256 8.68009 11.8173 8.84809 11.556 9.18409C11.2947 9.52009 11.164 10.0101 11.164 10.6541V11.2421ZM16.3267 12.9781C16.3267 12.9221 16.3734 12.8801 16.4667 12.8521C16.5601 12.8148 16.6721 12.7961 16.8027 12.7961H18.3987V7.86809C18.3987 7.79342 18.4221 7.72809 18.4687 7.67209C18.5247 7.61609 18.5901 7.58809 18.6647 7.58809H19.3087C19.3834 7.58809 19.4441 7.61609 19.4907 7.67209C19.5467 7.72809 19.5747 7.79342 19.5747 7.86809V8.42809C19.8174 8.24142 20.0881 8.09209 20.3867 7.98009C20.6854 7.85876 20.9794 7.77009 21.2687 7.71409C21.5581 7.64876 21.8287 7.60676 22.0807 7.58809C22.3327 7.56942 22.5381 7.56009 22.6967 7.56009C23.2941 7.56009 23.8214 7.62542 24.2787 7.75609C24.7454 7.88676 25.1374 8.09676 25.4547 8.38609C25.7721 8.67542 26.0101 9.04876 26.1687 9.50609C26.3367 9.96342 26.4207 10.5188 26.4207 11.1721V11.3821C26.4207 11.4848 26.4207 11.6061 26.4207 11.7461C26.4207 11.8768 26.4161 12.0074 26.4067 12.1381C26.3974 12.2688 26.3834 12.3948 26.3647 12.5161C26.3461 12.6281 26.3227 12.7214 26.2947 12.7961H27.4287V14.0001H16.8027C16.6721 14.0001 16.5601 13.9861 16.4667 13.9581C16.3734 13.9208 16.3267 13.8694 16.3267 13.8041V12.9781ZM19.5747 12.7961C19.8081 12.8054 20.0461 12.8101 20.2887 12.8101C20.5407 12.8101 20.8627 12.8101 21.2547 12.8101H24.8807C25.0114 12.8101 25.1047 12.7354 25.1607 12.5861C25.2167 12.4274 25.2447 12.1008 25.2447 11.6061V11.3541C25.2447 10.8408 25.1841 10.4161 25.0627 10.0801C24.9507 9.74409 24.7781 9.47809 24.5447 9.28209C24.3114 9.07676 24.0174 8.93209 23.6627 8.84809C23.3081 8.76409 22.8927 8.72209 22.4167 8.72209C22.2767 8.72209 22.0854 8.73609 21.8427 8.76409C21.6094 8.78276 21.3574 8.82009 21.0867 8.87609C20.8161 8.93209 20.5454 9.01142 20.2747 9.11409C20.0041 9.20742 19.7707 9.33342 19.5747 9.49209V12.7961ZM30.1437 5.08209C30.1437 4.98876 30.1764 4.91409 30.2417 4.85809C30.3071 4.80209 30.3817 4.77409 30.4657 4.77409H31.0817C31.1657 4.77409 31.2357 4.80209 31.2917 4.85809C31.3571 4.91409 31.3897 4.98876 31.3897 5.08209V5.83809C31.3897 5.92209 31.3571 5.99209 31.2917 6.04809C31.2357 6.10409 31.1611 6.13209 31.0677 6.13209H30.4657C30.3724 6.13209 30.2931 6.10409 30.2277 6.04809C30.1717 5.99209 30.1437 5.92209 30.1437 5.83809V5.08209ZM26.8677 12.9781C26.8677 12.9221 26.9144 12.8801 27.0077 12.8521C27.1011 12.8148 27.2131 12.7961 27.3437 12.7961H33.8397L33.3357 11.5921L33.0137 10.8501C32.7057 10.1408 32.2951 9.61342 31.7817 9.26809C31.2777 8.91342 30.5871 8.73609 29.7097 8.73609C29.6724 8.73609 29.6117 8.74076 29.5277 8.75009C29.4531 8.75009 29.3644 8.75476 29.2617 8.76409C29.1684 8.77342 29.0704 8.78276 28.9677 8.79209C28.8744 8.79209 28.7904 8.79676 28.7157 8.80609C28.5104 8.82476 28.4077 8.75942 28.4077 8.61009V8.03609C28.4077 7.96142 28.4264 7.90542 28.4637 7.86809C28.5011 7.82142 28.5711 7.78876 28.6737 7.77009C28.8791 7.72342 29.1077 7.69076 29.3597 7.67209C29.6211 7.65342 29.8357 7.64409 30.0037 7.64409C30.4704 7.64409 30.9091 7.69076 31.3197 7.78409C31.7304 7.86809 32.1177 8.03142 32.4817 8.27409C32.8457 8.50742 33.1817 8.83409 33.4897 9.25409C33.7977 9.66476 34.0871 10.1968 34.3577 10.8501L34.4977 11.2141L35.0857 12.7121C35.1044 12.7774 35.1184 12.8428 35.1277 12.9081C35.1464 12.9734 35.1557 13.0574 35.1557 13.1601V13.6641C35.1557 13.7668 35.1277 13.8508 35.0717 13.9161C35.0157 13.9721 34.9084 14.0001 34.7497 14.0001H27.3437C27.2037 14.0001 27.0917 13.9814 27.0077 13.9441C26.9144 13.8974 26.8677 13.8508 26.8677 13.8041V12.9781Z" fill="white"/>
</svg>
